<svg xmlns="http://www.w3.org/2000/svg" viewBox="0 0 1200 630" width="1200" height="630" role="img" aria-label="numkit">
<title>numkit</title>
<rect x="0" y="0" width="1200" height="630" fill="#ffffff"/>
<g fill="#e2e8f0">
<circle cx="60.0" cy="63.0" r="3"/>
<circle cx="144.0" cy="63.0" r="3"/>
<circle cx="60.0" cy="138.6" r="3"/>
<circle cx="1140.0" cy="567.0" r="3"/>
<circle cx="1056.0" cy="567.0" r="3"/>
<circle cx="1140.0" cy="491.40000000000003" r="3"/>
</g>
<g transform="translate(230.61235200000004, 315.0)"><path transform="translate(0.000, 0) scale(0.1008, -0.1008)" d="M388 1328V-104Q388 -135 404.0 -148.5Q420 -162 453 -162H626Q683 -162 683 -209Q683 -230 669.0 -242.5Q655 -255 626 -255H237Q197 -255 179.5 -236.0Q162 -217 162 -177V1400Q162 1441 179.5 1460.0Q197 1479 237 1479H626Q655 1479 669.0 1466.0Q683 1453 683 1432Q683 1385 626 1385H453Q420 1385 404.0 1372.0Q388 1359 388 1328Z" fill="#6366f1"/></g><g transform="translate(296.43475200000006, 315.0)"><path transform="translate(0.000, 0) scale(0.1008, -0.1008)" d="M471 902V793Q574 881 650 922Q740 970 821 970Q944 970 1012.0 887.5Q1080 805 1095 668L1151 163Q1154 130 1162.0 115.0Q1170 100 1189 94L1224 84Q1243 77 1252.0 66.5Q1261 56 1261 41Q1261 22 1248.0 11.0Q1235 0 1206 0H816Q761 0 761 44Q761 71 792 84L830 94Q849 101 859.5 116.0Q870 131 866 163L814 627Q804 714 769.5 758.0Q735 802 668 802Q626 802 579.5 780.0Q533 758 481 714L471 705V160Q471 129 480.0 115.0Q489 101 507 94L543 84Q575 71 575 44Q575 0 519 0H133Q105 0 92.0 11.0Q79 22 79 41Q79 56 87.5 66.5Q96 77 115 84L155 94Q173 101 181.5 115.0Q190 129 190 160V733Q190 759 182.5 770.0Q175 781 158 784L105 788Q87 792 79.0 801.0Q71 810 71 824Q71 841 80.5 851.0Q90 861 117 871L303 939Q341 953 364.0 959.0Q387 965 408 965Q439 965 455.0 947.5Q471 930 471 902Z" fill="#6366f1"/></g><g transform="translate(431.2043520000001, 359.352)"><path transform="translate(0.000, 0) scale(0.05544, -0.05544)" d="M130 0Q101 0 90.0 11.0Q79 22 79 41Q79 56 87.5 66.5Q96 77 116 84L155 94Q173 101 181.5 115.0Q190 129 190 160V1255Q190 1280 182.5 1291.0Q175 1302 158 1305L105 1309Q87 1314 79.0 1323.0Q71 1332 71 1346Q71 1362 80.5 1372.0Q90 1382 117 1392L303 1460Q341 1474 364.0 1480.5Q387 1487 408 1487Q439 1487 455.0 1469.5Q471 1452 471 1423V502L797 768Q832 796 828.5 820.5Q825 845 786 857L751 866Q732 872 725.0 881.0Q718 890 718 905Q718 925 732.0 936.0Q746 947 771 947H1121Q1145 947 1159.5 936.0Q1174 925 1174 907Q1174 888 1162.0 876.0Q1150 864 1112 855Q1061 844 1021.5 822.0Q982 800 922 752L766 627L1090 159Q1114 126 1132.0 112.5Q1150 99 1183 88Q1204 78 1214.5 66.0Q1225 54 1225 39Q1225 21 1210.5 10.5Q1196 0 1172 0H764Q742 0 729.0 11.0Q716 22 716 41Q716 54 723.0 63.0Q730 72 746 78L778 87Q806 95 808.0 111.5Q810 128 782 167L571 472L471 391V160Q471 129 480.0 115.0Q489 101 507 94L543 84Q575 71 575 44Q575 0 519 0Z" fill="#6366f1"/></g><g transform="translate(495.4744320000001, 315.0)"><path transform="translate(0.000, 0) scale(0.1008, -0.1008)" d="M317.0 -105.0V1327.0Q317.0 1358.0 301.0 1371.5Q285.0 1385.0 252.0 1385.0H79.0Q22.0 1385.0 22.0 1432.0Q22.0 1453.0 36.0 1465.5Q50.0 1478.0 79.0 1478.0H468.0Q508.0 1478.0 525.5 1459.0Q543.0 1440.0 543.0 1400.0V-177.0Q543.0 -218.0 525.5 -237.0Q508.0 -256.0 468.0 -256.0H79.0Q50.0 -256.0 36.0 -243.0Q22.0 -230.0 22.0 -209.0Q22.0 -162.0 79.0 -162.0H252.0Q285.0 -162.0 301.0 -149.0Q317.0 -136.0 317.0 -105.0Z" fill="#6366f1"/></g><g transform="translate(604.3384320000001, 307.796832)"><path transform="translate(0.000, 0) scale(0.11692799999999998, -0.11692799999999998)" d="M383 0V277Q383 320 356.0 347.0Q329 374 286 374Q258 374 236.0 362.0Q214 350 201.5 328.0Q189 306 189 277V0H58V483H189V438Q207 456 231 469Q274 493 329 493Q382 493 424.0 466.5Q466 440 490.0 397.5Q514 355 514 306V0Z" fill="#0f172a"/><path transform="translate(65.714, 0) scale(0.11692799999999998, -0.11692799999999998)" d="M264 -10Q200 -10 150.5 17.0Q101 44 73.0 92.0Q45 140 45 203V483H177V206Q177 176 187.0 154.5Q197 133 217.0 122.0Q237 111 264 111Q305 111 328.0 136.0Q351 161 351 206V483H482V203Q482 139 454.5 91.0Q427 43 377.5 16.5Q328 -10 264 -10Z" fill="#0f172a"/><path transform="translate(127.452, 0) scale(0.11692799999999998, -0.11692799999999998)" d="M58 0V483H189V441Q206 458 229 471Q271 493 324 493Q374 493 415 471Q449 452 472 420Q496 451 531 470Q575 493 629.0 493.0Q683 493 726.0 470.5Q769 448 794.0 406.0Q819 364 819 306V0H688V285Q688 327 661.5 350.5Q635 374 596 374Q571 374 549.5 363.5Q528 353 516.0 333.0Q504 313 504 285V0H373V285Q373 327 346.5 350.5Q320 374 281 374Q255 374 234.0 363.5Q213 353 201.0 333.0Q189 313 189 285V0Z" fill="#0f172a"/><path transform="translate(228.828, 0) scale(0.11692799999999998, -0.11692799999999998)" d="M366 0 189 236V0H58V723H189V262L365 483H516L326 253L526 0Z" fill="#0f172a"/><path transform="translate(290.566, 0) scale(0.11692799999999998, -0.11692799999999998)" d="M58 0V483H190V0ZM124 561Q92 561 71.0 582.5Q50 604 50 636Q50 667 71.0 689.0Q92 711 124 711Q157 711 177.5 689.0Q198 667 198 636Q198 604 177.5 582.5Q157 561 124 561Z" fill="#0f172a"/><path transform="translate(319.564, 0) scale(0.11692799999999998, -0.11692799999999998)" d="M129 0V368H16V483H129V684H260V483H373V368H260V0Z" fill="#0f172a"/></g><g transform="translate(333.64545000000004, 466.2)"><path transform="translate(0.000, 0) scale(0.03465, -0.03465)" d="M419 344 531 350C517 469 415 542 297 542C144 542 44 434 44 265C44 96 144 -12 297 -12C419 -12 519 65 535 189L422 195C411 122 360 81 297 81C207 81 156 150 156 265C156 380 207 449 297 449C357 449 409 410 419 344Z" fill="#64748b"/><path transform="translate(19.716, 0) scale(0.03465, -0.03465)" d="M297 -12C450 -12 550 96 550 265C550 434 450 542 297 542C144 542 44 434 44 265C44 96 144 -12 297 -12ZM156 265C156 380 207 449 297 449C387 449 438 380 438 265C438 150 387 81 297 81C207 81 156 150 156 265Z" fill="#64748b"/><path transform="translate(40.298, 0) scale(0.03465, -0.03465)" d="M75 530V0H183V308C183 399 225 451 299 451C358 451 392 400 392 308V0H494V308C494 400 535 451 610 451C670 451 703 401 703 308V0H810V341C810 470 746 542 639 542C559 542 504 504 480 432C457 502 402 542 326 542C255 542 201 506 176 444L172 530Z" fill="#64748b"/><path transform="translate(70.963, 0) scale(0.03465, -0.03465)" d="M75 -150H183V72C213 17 267 -12 339 -12C495 -12 567 116 567 265C567 414 495 542 339 542C263 542 207 510 178 451L175 530H75ZM173 265C173 359 215 449 313 449C412 449 454 360 454 265C454 170 413 81 313 81C215 81 173 171 173 265Z" fill="#64748b"/><path transform="translate(92.134, 0) scale(0.03465, -0.03465)" d="M511 0V530H404V222C404 129 356 79 281 79C210 79 183 129 183 222V530H75V189C75 73 136 -12 253 -12C321 -12 382 17 410 85L411 0Z" fill="#64748b"/><path transform="translate(112.474, 0) scale(0.03465, -0.03465)" d="M130 650V530H50V442H130V153C130 53 186 0 289 0H378V88H299C259 88 238 110 238 153V442H379V530H238V650Z" fill="#64748b"/><path transform="translate(126.819, 0) scale(0.03465, -0.03465)" d="M44 265C44 96 144 -12 297 -12C405 -12 498 51 530 152L418 160C396 110 349 80 297 80C214 80 164 137 158 234H537V269C531 458 423 542 297 542C144 542 44 434 44 265ZM159 315C171 400 220 450 297 450C356 450 411 415 424 315Z" fill="#64748b"/><path transform="translate(155.405, 0) scale(0.03465, -0.03465)" d="M53 371 164 364C179 423 219 454 280 454C357 454 395 414 396 329L245 300C123 276 44 245 44 139C44 45 129 -12 235 -12C323 -12 382 31 405 81C410 7 476 -1 524 0H558V85H536C515 85 504 94 504 120V317C504 462 425 542 280 542C158 542 74 478 53 371ZM156 141C156 208 214 214 286 227L398 247V242C398 128 337 71 258 71C189 71 156 103 156 141Z" fill="#64748b"/><path transform="translate(175.849, 0) scale(0.03465, -0.03465)" d="M75 530V0H183V308C183 401 231 451 308 451C381 451 409 401 409 308V0H517V341C517 457 456 542 336 542C264 542 203 511 175 439L172 530Z" fill="#64748b"/><path transform="translate(196.362, 0) scale(0.03465, -0.03465)" d="M536 710H428V460C398 511 338 542 268 542C130 542 44 435 44 265C44 95 130 -12 268 -12C341 -12 403 21 433 75L436 0H536ZM155 265C155 380 210 452 296 452C382 452 436 380 436 265C436 152 382 81 296 81C211 81 155 152 155 265Z" fill="#64748b"/><path transform="translate(225.953, 0) scale(0.03465, -0.03465)" d="M44 265C44 96 144 -12 297 -12C405 -12 498 51 530 152L418 160C396 110 349 80 297 80C214 80 164 137 158 234H537V269C531 458 423 542 297 542C144 542 44 434 44 265ZM159 315C171 400 220 450 297 450C356 450 411 415 424 315Z" fill="#64748b"/><path transform="translate(246.119, 0) scale(0.03465, -0.03465)" d="M428 530 305 348 181 530H56L240 271L47 0H172L305 194L436 0H562L370 270L554 530Z" fill="#64748b"/><path transform="translate(267.186, 0) scale(0.03465, -0.03465)" d="M75 -150H183V72C213 17 267 -12 339 -12C495 -12 567 116 567 265C567 414 495 542 339 542C263 542 207 510 178 451L175 530H75ZM173 265C173 359 215 449 313 449C412 449 454 360 454 265C454 170 413 81 313 81C215 81 173 171 173 265Z" fill="#64748b"/><path transform="translate(288.357, 0) scale(0.03465, -0.03465)" d="M75 710V119C75 46 123 0 194 0H261V88H218C194 88 183 100 183 123V710Z" fill="#64748b"/><path transform="translate(298.718, 0) scale(0.03465, -0.03465)" d="M297 -12C450 -12 550 96 550 265C550 434 450 542 297 542C144 542 44 434 44 265C44 96 144 -12 297 -12ZM156 265C156 380 207 449 297 449C387 449 438 380 438 265C438 150 387 81 297 81C207 81 156 150 156 265Z" fill="#64748b"/><path transform="translate(319.300, 0) scale(0.03465, -0.03465)" d="M75 530V0H183V309C183 397 219 442 302 442H353V530H303C235 530 195 499 177 432L174 530Z" fill="#64748b"/><path transform="translate(333.090, 0) scale(0.03465, -0.03465)" d="M44 265C44 96 144 -12 297 -12C405 -12 498 51 530 152L418 160C396 110 349 80 297 80C214 80 164 137 158 234H537V269C531 458 423 542 297 542C144 542 44 434 44 265ZM159 315C171 400 220 450 297 450C356 450 411 415 424 315Z" fill="#64748b"/><path transform="translate(353.257, 0) scale(0.03465, -0.03465)" d="M171 0V123H44V0H90L49 -156H110Z" fill="#64748b"/><path transform="translate(369.126, 0) scale(0.03465, -0.03465)" d="M53 371 164 364C179 423 219 454 280 454C357 454 395 414 396 329L245 300C123 276 44 245 44 139C44 45 129 -12 235 -12C323 -12 382 31 405 81C410 7 476 -1 524 0H558V85H536C515 85 504 94 504 120V317C504 462 425 542 280 542C158 542 74 478 53 371ZM156 141C156 208 214 214 286 227L398 247V242C398 128 337 71 258 71C189 71 156 103 156 141Z" fill="#64748b"/><path transform="translate(389.570, 0) scale(0.03465, -0.03465)" d="M75 530V0H183V308C183 401 231 451 308 451C381 451 409 401 409 308V0H517V341C517 457 456 542 336 542C264 542 203 511 175 439L172 530Z" fill="#64748b"/><path transform="translate(410.083, 0) scale(0.03465, -0.03465)" d="M22 530 214 16H247L230 -28C220 -53 205 -63 177 -63H114V-150H193C259 -150 299 -122 321 -62L533 530H425L280 114L131 530Z" fill="#64748b"/><path transform="translate(429.313, 0) scale(0.03465, -0.03465)" d="M466 530H364L247 122L131 530H22L184 0H304L415 377L526 0H646L808 530H699L583 122Z" fill="#64748b"/><path transform="translate(458.073, 0) scale(0.03465, -0.03465)" d="M75 710V0H183V303C183 396 231 446 308 446C381 446 409 396 409 303V0H517V341C517 454 457 542 338 542C274 542 214 518 183 459V710Z" fill="#64748b"/><path transform="translate(478.586, 0) scale(0.03465, -0.03465)" d="M44 265C44 96 144 -12 297 -12C405 -12 498 51 530 152L418 160C396 110 349 80 297 80C214 80 164 137 158 234H537V269C531 458 423 542 297 542C144 542 44 434 44 265ZM159 315C171 400 220 450 297 450C356 450 411 415 424 315Z" fill="#64748b"/><path transform="translate(498.752, 0) scale(0.03465, -0.03465)" d="M75 530V0H183V309C183 397 219 442 302 442H353V530H303C235 530 195 499 177 432L174 530Z" fill="#64748b"/><path transform="translate(512.543, 0) scale(0.03465, -0.03465)" d="M44 265C44 96 144 -12 297 -12C405 -12 498 51 530 152L418 160C396 110 349 80 297 80C214 80 164 137 158 234H537V269C531 458 423 542 297 542C144 542 44 434 44 265ZM159 315C171 400 220 450 297 450C356 450 411 415 424 315Z" fill="#64748b"/></g><g transform="translate(539.71656, 521.64)"><path transform="translate(0.000, 0) scale(0.02268, -0.02268)" d="M75 530V0H183V308C183 401 231 451 308 451C381 451 409 401 409 308V0H517V341C517 457 456 542 336 542C264 542 203 511 175 439L172 530Z" fill="#6366f1"/><path transform="translate(13.427, 0) scale(0.02268, -0.02268)" d="M511 0V530H404V222C404 129 356 79 281 79C210 79 183 129 183 222V530H75V189C75 73 136 -12 253 -12C321 -12 382 17 410 85L411 0Z" fill="#6366f1"/><path transform="translate(26.740, 0) scale(0.02268, -0.02268)" d="M75 530V0H183V308C183 399 225 451 299 451C358 451 392 400 392 308V0H494V308C494 400 535 451 610 451C670 451 703 401 703 308V0H810V341C810 470 746 542 639 542C559 542 504 504 480 432C457 502 402 542 326 542C255 542 201 506 176 444L172 530Z" fill="#6366f1"/><path transform="translate(46.812, 0) scale(0.02268, -0.02268)" d="M75 710V0H183V140L275 240L437 0H563L346 308L553 530H416L183 270V710Z" fill="#6366f1"/><path transform="translate(60.646, 0) scale(0.02268, -0.02268)" d="M75 530V0H183V530ZM73 608H185V710H73Z" fill="#6366f1"/><path transform="translate(66.498, 0) scale(0.02268, -0.02268)" d="M130 650V530H50V442H130V153C130 53 186 0 289 0H378V88H299C259 88 238 110 238 153V442H379V530H238V650Z" fill="#6366f1"/><path transform="translate(75.887, 0) scale(0.02268, -0.02268)" d="M44 123V0H171V123Z" fill="#6366f1"/><path transform="translate(80.763, 0) scale(0.02268, -0.02268)" d="M536 710H428V460C398 511 338 542 268 542C130 542 44 435 44 265C44 95 130 -12 268 -12C341 -12 403 21 433 75L436 0H536ZM155 265C155 380 210 452 296 452C382 452 436 380 436 265C436 152 382 81 296 81C211 81 155 152 155 265Z" fill="#6366f1"/><path transform="translate(94.621, 0) scale(0.02268, -0.02268)" d="M44 265C44 96 144 -12 297 -12C405 -12 498 51 530 152L418 160C396 110 349 80 297 80C214 80 164 137 158 234H537V269C531 458 423 542 297 542C144 542 44 434 44 265ZM159 315C171 400 220 450 297 450C356 450 411 415 424 315Z" fill="#6366f1"/><path transform="translate(107.821, 0) scale(0.02268, -0.02268)" d="M540 530H427L281 110L135 530H22L216 0H346Z" fill="#6366f1"/></g>
</svg>