<svg xmlns="http://www.w3.org/2000/svg" viewBox="0 0 571 160" width="571" height="160" role="img" aria-label="numkit">
<title>numkit</title>
<g transform="translate(-9.304000000000002, 121.6)"><path transform="translate(0.000, 0) scale(0.08, -0.08)" d="M388 1328V-104Q388 -135 404.0 -148.5Q420 -162 453 -162H626Q683 -162 683 -209Q683 -230 669.0 -242.5Q655 -255 626 -255H237Q197 -255 179.5 -236.0Q162 -217 162 -177V1400Q162 1441 179.5 1460.0Q197 1479 237 1479H626Q655 1479 669.0 1466.0Q683 1453 683 1432Q683 1385 626 1385H453Q420 1385 404.0 1372.0Q388 1359 388 1328Z" fill="#6366f1"/></g><g transform="translate(42.93599999999999, 121.6)"><path transform="translate(0.000, 0) scale(0.08, -0.08)" d="M471 902V793Q574 881 650 922Q740 970 821 970Q944 970 1012.0 887.5Q1080 805 1095 668L1151 163Q1154 130 1162.0 115.0Q1170 100 1189 94L1224 84Q1243 77 1252.0 66.5Q1261 56 1261 41Q1261 22 1248.0 11.0Q1235 0 1206 0H816Q761 0 761 44Q761 71 792 84L830 94Q849 101 859.5 116.0Q870 131 866 163L814 627Q804 714 769.5 758.0Q735 802 668 802Q626 802 579.5 780.0Q533 758 481 714L471 705V160Q471 129 480.0 115.0Q489 101 507 94L543 84Q575 71 575 44Q575 0 519 0H133Q105 0 92.0 11.0Q79 22 79 41Q79 56 87.5 66.5Q96 77 115 84L155 94Q173 101 181.5 115.0Q190 129 190 160V733Q190 759 182.5 770.0Q175 781 158 784L105 788Q87 792 79.0 801.0Q71 810 71 824Q71 841 80.5 851.0Q90 861 117 871L303 939Q341 953 364.0 959.0Q387 965 408 965Q439 965 455.0 947.5Q471 930 471 902Z" fill="#6366f1"/></g><g transform="translate(149.896, 156.8)"><path transform="translate(0.000, 0) scale(0.044, -0.044)" d="M130 0Q101 0 90.0 11.0Q79 22 79 41Q79 56 87.5 66.5Q96 77 116 84L155 94Q173 101 181.5 115.0Q190 129 190 160V1255Q190 1280 182.5 1291.0Q175 1302 158 1305L105 1309Q87 1314 79.0 1323.0Q71 1332 71 1346Q71 1362 80.5 1372.0Q90 1382 117 1392L303 1460Q341 1474 364.0 1480.5Q387 1487 408 1487Q439 1487 455.0 1469.5Q471 1452 471 1423V502L797 768Q832 796 828.5 820.5Q825 845 786 857L751 866Q732 872 725.0 881.0Q718 890 718 905Q718 925 732.0 936.0Q746 947 771 947H1121Q1145 947 1159.5 936.0Q1174 925 1174 907Q1174 888 1162.0 876.0Q1150 864 1112 855Q1061 844 1021.5 822.0Q982 800 922 752L766 627L1090 159Q1114 126 1132.0 112.5Q1150 99 1183 88Q1204 78 1214.5 66.0Q1225 54 1225 39Q1225 21 1210.5 10.5Q1196 0 1172 0H764Q742 0 729.0 11.0Q716 22 716 41Q716 54 723.0 63.0Q730 72 746 78L778 87Q806 95 808.0 111.5Q810 128 782 167L571 472L471 391V160Q471 129 480.0 115.0Q489 101 507 94L543 84Q575 71 575 44Q575 0 519 0Z" fill="#6366f1"/></g><g transform="translate(200.904, 121.6)"><path transform="translate(0.000, 0) scale(0.08, -0.08)" d="M317.0 -105.0V1327.0Q317.0 1358.0 301.0 1371.5Q285.0 1385.0 252.0 1385.0H79.0Q22.0 1385.0 22.0 1432.0Q22.0 1453.0 36.0 1465.5Q50.0 1478.0 79.0 1478.0H468.0Q508.0 1478.0 525.5 1459.0Q543.0 1440.0 543.0 1400.0V-177.0Q543.0 -218.0 525.5 -237.0Q508.0 -256.0 468.0 -256.0H79.0Q50.0 -256.0 36.0 -243.0Q22.0 -230.0 22.0 -209.0Q22.0 -162.0 79.0 -162.0H252.0Q285.0 -162.0 301.0 -149.0Q317.0 -136.0 317.0 -105.0Z" fill="#6366f1"/></g><g transform="translate(260.8, 115.88319999999999)"><path transform="translate(0.000, 0) scale(0.0928, -0.0928)" d="M383 0V277Q383 320 356.0 347.0Q329 374 286 374Q258 374 236.0 362.0Q214 350 201.5 328.0Q189 306 189 277V0H58V483H189V438Q207 456 231 469Q274 493 329 493Q382 493 424.0 466.5Q466 440 490.0 397.5Q514 355 514 306V0Z" fill="#0f172a"/><path transform="translate(52.154, 0) scale(0.0928, -0.0928)" d="M264 -10Q200 -10 150.5 17.0Q101 44 73.0 92.0Q45 140 45 203V483H177V206Q177 176 187.0 154.5Q197 133 217.0 122.0Q237 111 264 111Q305 111 328.0 136.0Q351 161 351 206V483H482V203Q482 139 454.5 91.0Q427 43 377.5 16.5Q328 -10 264 -10Z" fill="#0f172a"/><path transform="translate(101.152, 0) scale(0.0928, -0.0928)" d="M58 0V483H189V441Q206 458 229 471Q271 493 324 493Q374 493 415 471Q449 452 472 420Q496 451 531 470Q575 493 629.0 493.0Q683 493 726.0 470.5Q769 448 794.0 406.0Q819 364 819 306V0H688V285Q688 327 661.5 350.5Q635 374 596 374Q571 374 549.5 363.5Q528 353 516.0 333.0Q504 313 504 285V0H373V285Q373 327 346.5 350.5Q320 374 281 374Q255 374 234.0 363.5Q213 353 201.0 333.0Q189 313 189 285V0Z" fill="#0f172a"/><path transform="translate(181.610, 0) scale(0.0928, -0.0928)" d="M366 0 189 236V0H58V723H189V262L365 483H516L326 253L526 0Z" fill="#0f172a"/><path transform="translate(230.608, 0) scale(0.0928, -0.0928)" d="M58 0V483H190V0ZM124 561Q92 561 71.0 582.5Q50 604 50 636Q50 667 71.0 689.0Q92 711 124 711Q157 711 177.5 689.0Q198 667 198 636Q198 604 177.5 582.5Q157 561 124 561Z" fill="#0f172a"/><path transform="translate(253.622, 0) scale(0.0928, -0.0928)" d="M129 0V368H16V483H129V684H260V483H373V368H260V0Z" fill="#0f172a"/></g>
</svg>