<svg xmlns="http://www.w3.org/2000/svg" viewBox="0 0 1200 630" width="1200" height="630" role="img" aria-label="numkit">
<title>numkit</title>
<rect x="0" y="0" width="1200" height="630" fill="#ffffff"/>
<g fill="#e2e8f0">
<circle cx="60.0" cy="63.0" r="3"/>
<circle cx="144.0" cy="63.0" r="3"/>
<circle cx="60.0" cy="138.6" r="3"/>
<circle cx="1140.0" cy="567.0" r="3"/>
<circle cx="1056.0" cy="567.0" r="3"/>
<circle cx="1140.0" cy="491.40000000000003" r="3"/>
</g>
<g transform="translate(230.61235200000004, 315.0)"><path transform="translate(0.000, 0) scale(0.1008, -0.1008)" d="M388 1328V-104Q388 -135 404.0 -148.5Q420 -162 453 -162H626Q683 -162 683 -209Q683 -230 669.0 -242.5Q655 -255 626 -255H237Q197 -255 179.5 -236.0Q162 -217 162 -177V1400Q162 1441 179.5 1460.0Q197 1479 237 1479H626Q655 1479 669.0 1466.0Q683 1453 683 1432Q683 1385 626 1385H453Q420 1385 404.0 1372.0Q388 1359 388 1328Z" fill="#6366f1"/></g><g transform="translate(296.43475200000006, 315.0)"><path transform="translate(0.000, 0) scale(0.1008, -0.1008)" d="M471 902V793Q574 881 650 922Q740 970 821 970Q944 970 1012.0 887.5Q1080 805 1095 668L1151 163Q1154 130 1162.0 115.0Q1170 100 1189 94L1224 84Q1243 77 1252.0 66.5Q1261 56 1261 41Q1261 22 1248.0 11.0Q1235 0 1206 0H816Q761 0 761 44Q761 71 792 84L830 94Q849 101 859.5 116.0Q870 131 866 163L814 627Q804 714 769.5 758.0Q735 802 668 802Q626 802 579.5 780.0Q533 758 481 714L471 705V160Q471 129 480.0 115.0Q489 101 507 94L543 84Q575 71 575 44Q575 0 519 0H133Q105 0 92.0 11.0Q79 22 79 41Q79 56 87.5 66.5Q96 77 115 84L155 94Q173 101 181.5 115.0Q190 129 190 160V733Q190 759 182.5 770.0Q175 781 158 784L105 788Q87 792 79.0 801.0Q71 810 71 824Q71 841 80.5 851.0Q90 861 117 871L303 939Q341 953 364.0 959.0Q387 965 408 965Q439 965 455.0 947.5Q471 930 471 902Z" fill="#6366f1"/></g><g transform="translate(431.2043520000001, 359.352)"><path transform="translate(0.000, 0) scale(0.05544, -0.05544)" d="M130 0Q101 0 90.0 11.0Q79 22 79 41Q79 56 87.5 66.5Q96 77 116 84L155 94Q173 101 181.5 115.0Q190 129 190 160V1255Q190 1280 182.5 1291.0Q175 1302 158 1305L105 1309Q87 1314 79.0 1323.0Q71 1332 71 1346Q71 1362 80.5 1372.0Q90 1382 117 1392L303 1460Q341 1474 364.0 1480.5Q387 1487 408 1487Q439 1487 455.0 1469.5Q471 1452 471 1423V502L797 768Q832 796 828.5 820.5Q825 845 786 857L751 866Q732 872 725.0 881.0Q718 890 718 905Q718 925 732.0 936.0Q746 947 771 947H1121Q1145 947 1159.5 936.0Q1174 925 1174 907Q1174 888 1162.0 876.0Q1150 864 1112 855Q1061 844 1021.5 822.0Q982 800 922 752L766 627L1090 159Q1114 126 1132.0 112.5Q1150 99 1183 88Q1204 78 1214.5 66.0Q1225 54 1225 39Q1225 21 1210.5 10.5Q1196 0 1172 0H764Q742 0 729.0 11.0Q716 22 716 41Q716 54 723.0 63.0Q730 72 746 78L778 87Q806 95 808.0 111.5Q810 128 782 167L571 472L471 391V160Q471 129 480.0 115.0Q489 101 507 94L543 84Q575 71 575 44Q575 0 519 0Z" fill="#6366f1"/></g><g transform="translate(495.4744320000001, 315.0)"><path transform="translate(0.000, 0) scale(0.1008, -0.1008)" d="M317.0 -105.0V1327.0Q317.0 1358.0 301.0 1371.5Q285.0 1385.0 252.0 1385.0H79.0Q22.0 1385.0 22.0 1432.0Q22.0 1453.0 36.0 1465.5Q50.0 1478.0 79.0 1478.0H468.0Q508.0 1478.0 525.5 1459.0Q543.0 1440.0 543.0 1400.0V-177.0Q543.0 -218.0 525.5 -237.0Q508.0 -256.0 468.0 -256.0H79.0Q50.0 -256.0 36.0 -243.0Q22.0 -230.0 22.0 -209.0Q22.0 -162.0 79.0 -162.0H252.0Q285.0 -162.0 301.0 -149.0Q317.0 -136.0 317.0 -105.0Z" fill="#6366f1"/></g><g transform="translate(604.3384320000001, 307.796832)"><path transform="translate(0.000, 0) scale(0.11692799999999998, -0.11692799999999998)" d="M383 0V277Q383 320 356.0 347.0Q329 374 286 374Q258 374 236.0 362.0Q214 350 201.5 328.0Q189 306 189 277V0H58V483H189V438Q207 456 231 469Q274 493 329 493Q382 493 424.0 466.5Q466 440 490.0 397.5Q514 355 514 306V0Z" fill="#0f172a"/><path transform="translate(65.714, 0) scale(0.11692799999999998, -0.11692799999999998)" d="M264 -10Q200 -10 150.5 17.0Q101 44 73.0 92.0Q45 140 45 203V483H177V206Q177 176 187.0 154.5Q197 133 217.0 122.0Q237 111 264 111Q305 111 328.0 136.0Q351 161 351 206V483H482V203Q482 139 454.5 91.0Q427 43 377.5 16.5Q328 -10 264 -10Z" fill="#0f172a"/><path transform="translate(127.452, 0) scale(0.11692799999999998, -0.11692799999999998)" d="M58 0V483H189V441Q206 458 229 471Q271 493 324 493Q374 493 415 471Q449 452 472 420Q496 451 531 470Q575 493 629.0 493.0Q683 493 726.0 470.5Q769 448 794.0 406.0Q819 364 819 306V0H688V285Q688 327 661.5 350.5Q635 374 596 374Q571 374 549.5 363.5Q528 353 516.0 333.0Q504 313 504 285V0H373V285Q373 327 346.5 350.5Q320 374 281 374Q255 374 234.0 363.5Q213 353 201.0 333.0Q189 313 189 285V0Z" fill="#0f172a"/><path transform="translate(228.828, 0) scale(0.11692799999999998, -0.11692799999999998)" d="M366 0 189 236V0H58V723H189V262L365 483H516L326 253L526 0Z" fill="#0f172a"/><path transform="translate(290.566, 0) scale(0.11692799999999998, -0.11692799999999998)" d="M58 0V483H190V0ZM124 561Q92 561 71.0 582.5Q50 604 50 636Q50 667 71.0 689.0Q92 711 124 711Q157 711 177.5 689.0Q198 667 198 636Q198 604 177.5 582.5Q157 561 124 561Z" fill="#0f172a"/><path transform="translate(319.564, 0) scale(0.11692799999999998, -0.11692799999999998)" d="M129 0V368H16V483H129V684H260V483H373V368H260V0Z" fill="#0f172a"/></g><g transform="translate(336.14904785156256, 466.2)"><path transform="translate(0.000, 0) scale(0.0169189453125, -0.0169189453125)" d="M618 -23Q460 -23 343.0 49.0Q226 121 161.0 251.0Q96 381 96 553Q96 727 161.0 857.5Q226 988 343.0 1060.0Q460 1132 618 1132Q705 1132 781.0 1109.5Q857 1087 918.5 1044.5Q980 1002 1022.5 940.5Q1065 879 1086 802L877 752Q866 795 843.0 830.5Q820 866 787.5 892.0Q755 918 712.5 932.0Q670 946 619 946Q518 946 451.5 892.5Q385 839 352.5 750.0Q320 661 320 553Q320 446 352.5 357.5Q385 269 451.5 216.0Q518 163 619 163Q671 163 714.0 177.5Q757 192 791.0 218.5Q825 245 848.0 282.5Q871 320 881 365L1089 315Q1069 236 1026.0 173.5Q983 111 921.5 67.0Q860 23 783.0 0.0Q706 -23 618 -23Z" fill="#64748b"/><path transform="translate(19.998, 0) scale(0.0169189453125, -0.0169189453125)" d="M601 341Q389 341 268.5 444.0Q148 547 148 753V1118H368V753Q368 636 431.5 583.5Q495 531 601 531Q698 531 782 550Q806 556 831 562V1118H1051V0H831V370Q782 358 729 350Q668 341 601 341Z" fill="#64748b"/><path transform="translate(40.284, 0) scale(0.0169189453125, -0.0169189453125)" d="M1084 0H864V757H852L347 0H148V1118H368V360H379L885 1118H1084Z" fill="#64748b"/><path transform="translate(61.128, 0) scale(0.0169189453125, -0.0169189453125)" d="M383 0V932H20V1118H964V932H603V0Z" fill="#64748b"/><path transform="translate(77.776, 0) scale(0.0169189453125, -0.0169189453125)" d="M461 -25Q355 -25 269.0 14.5Q183 54 133.0 130.0Q83 206 83 316Q83 411 119.5 472.0Q156 533 218.5 569.0Q281 605 357.5 623.0Q434 641 513 650Q612 662 674.0 669.5Q736 677 765.5 694.5Q795 712 795 751V757Q795 820 771.0 863.0Q747 906 699.5 929.5Q652 953 581 953Q508 953 455.5 930.5Q403 908 370.5 873.0Q338 838 322 800L115 854Q153 954 224.0 1015.0Q295 1076 387.0 1104.0Q479 1132 577 1132Q645 1132 721.0 1116.0Q797 1100 864.0 1058.0Q931 1016 973.0 940.0Q1015 864 1015 742V0H802V153H791Q769 110 726.0 69.0Q683 28 617.5 1.5Q552 -25 461 -25ZM510 152Q600 152 664.0 187.0Q728 222 762.0 280.0Q796 338 796 403V546Q784 534 750.5 524.5Q717 515 674.0 507.5Q631 500 591.0 495.0Q551 490 525 487Q463 479 411.5 460.0Q360 441 329.5 406.0Q299 371 299 313Q299 260 326.5 224.0Q354 188 401.0 170.0Q448 152 510 152Z" fill="#64748b"/><path transform="translate(97.453, 0) scale(0.0169189453125, -0.0169189453125)" d="M1084 0H864V757H852L347 0H148V1118H368V360H379L885 1118H1084ZM615 1269Q529 1269 459.5 1307.5Q390 1346 348.5 1412.5Q307 1479 307 1561H453Q453 1495 499.0 1452.0Q545 1409 615 1409Q685 1409 731.0 1452.0Q777 1495 777 1561H924Q924 1479 883.0 1413.0Q842 1347 772.5 1308.0Q703 1269 615 1269Z" fill="#64748b"/><path transform="translate(127.535, 0) scale(0.0169189453125, -0.0169189453125)" d="M1084 0H864V757H852L347 0H148V1118H368V360H379L885 1118H1084Z" fill="#64748b"/><path transform="translate(157.617, 0) scale(0.0169189453125, -0.0169189453125)" d="M1084 0H864V757H852L347 0H148V1118H368V360H379L885 1118H1084Z" fill="#64748b"/><path transform="translate(178.461, 0) scale(0.0169189453125, -0.0169189453125)" d="M618 -23Q460 -23 343.0 49.0Q226 121 161.0 251.0Q96 381 96 553Q96 727 161.0 857.5Q226 988 343.0 1060.0Q460 1132 618 1132Q705 1132 781.0 1109.5Q857 1087 918.5 1044.5Q980 1002 1022.5 940.5Q1065 879 1086 802L877 752Q866 795 843.0 830.5Q820 866 787.5 892.0Q755 918 712.5 932.0Q670 946 619 946Q518 946 451.5 892.5Q385 839 352.5 750.0Q320 661 320 553Q320 446 352.5 357.5Q385 269 451.5 216.0Q518 163 619 163Q671 163 714.0 177.5Q757 192 791.0 218.5Q825 245 848.0 282.5Q871 320 881 365L1089 315Q1069 236 1026.0 173.5Q983 111 921.5 67.0Q860 23 783.0 0.0Q706 -23 618 -23Z" fill="#64748b"/><path transform="translate(198.459, 0) scale(0.0169189453125, -0.0169189453125)" d="M618 -23Q460 -23 343.0 49.0Q226 121 161.0 251.0Q96 381 96 553Q96 727 161.0 857.5Q226 988 343.0 1060.0Q460 1132 618 1132Q705 1132 781.0 1109.5Q857 1087 918.5 1044.5Q980 1002 1022.5 940.5Q1065 879 1086 802L877 752Q866 795 843.0 830.5Q820 866 787.5 892.0Q755 918 712.5 932.0Q670 946 619 946Q518 946 451.5 892.5Q385 839 352.5 750.0Q320 661 320 553Q320 446 352.5 357.5Q385 269 451.5 216.0Q518 163 619 163Q671 163 714.0 177.5Q757 192 791.0 218.5Q825 245 848.0 282.5Q871 320 881 365L1089 315Q1069 236 1026.0 173.5Q983 111 921.5 67.0Q860 23 783.0 0.0Q706 -23 618 -23Z" fill="#64748b"/><path transform="translate(218.457, 0) scale(0.0169189453125, -0.0169189453125)" d="M20 0V190H59Q105 190 136.5 209.0Q168 228 188.5 274.0Q209 320 220.0 403.0Q231 486 237 614L256 1118H1050V0H829V928H466L450 556Q442 366 404.5 242.5Q367 119 291.5 59.5Q216 0 94 0Z" fill="#64748b"/><path transform="translate(238.726, 0) scale(0.0169189453125, -0.0169189453125)" d="M630 -23Q465 -23 345.0 48.0Q225 119 160.5 248.0Q96 377 96 551Q96 723 159.5 854.0Q223 985 339.0 1058.5Q455 1132 611 1132Q707 1132 796.0 1100.5Q885 1069 956.0 1002.0Q1027 935 1068.5 828.5Q1110 722 1110 570V492H317Q321 391 357 320Q396 240 467.0 199.5Q538 159 632 159Q694 159 744.0 176.5Q794 194 830.5 229.5Q867 265 886 317L1093 268Q1066 182 1002.5 116.0Q939 50 844.5 13.5Q750 -23 630 -23ZM318 656H892Q885 726 862 784Q830 862 767.5 906.0Q705 950 611 950Q518 950 452.0 905.0Q386 860 352 787Q323 726 318 656Z" fill="#64748b"/><path transform="translate(259.080, 0) scale(0.0169189453125, -0.0169189453125)" d="M40 -323V190H130Q165 222 189.5 266.0Q214 310 231.0 371.5Q248 433 259.5 515.0Q271 597 280 702L315 1118H1078V190H1248V-323H1034V0H258V-323ZM367 190H864V929H508L488 702Q474 523 447.5 395.5Q421 268 367 190Z" fill="#64748b"/><path transform="translate(280.871, 0) scale(0.0169189453125, -0.0169189453125)" d="M133 -402 187 -223 212 -229Q269 -244 314.5 -237.0Q360 -230 393.5 -194.5Q427 -159 447 -87L471 -5L46 1118H284L505 483Q542 377 567 272Q576 231 586 190Q597 231 608 273Q634 378 671 483L896 1118H1132L646 -155Q612 -245 562.5 -305.0Q513 -365 445.0 -395.5Q377 -426 287 -426Q235 -426 194.0 -418.5Q153 -411 133 -402Z" fill="#64748b"/><path transform="translate(300.802, 0) scale(0.0169189453125, -0.0169189453125)" d="M1084 0H864V757H852L347 0H148V1118H368V360H379L885 1118H1084ZM615 1269Q529 1269 459.5 1307.5Q390 1346 348.5 1412.5Q307 1479 307 1561H453Q453 1495 499.0 1452.0Q545 1409 615 1409Q685 1409 731.0 1452.0Q777 1495 777 1561H924Q924 1479 883.0 1413.0Q842 1347 772.5 1308.0Q703 1269 615 1269Z" fill="#64748b"/><path transform="translate(321.646, 0) scale(0.0169189453125, -0.0169189453125)" d="M125 -371 213 214H450L285 -371Z" fill="#64748b"/><path transform="translate(341.390, 0) scale(0.0169189453125, -0.0169189453125)" d="M865 1118V928H368V0H148V1118Z" fill="#64748b"/><path transform="translate(356.685, 0) scale(0.0169189453125, -0.0169189453125)" d="M40 -323V190H130Q165 222 189.5 266.0Q214 310 231.0 371.5Q248 433 259.5 515.0Q271 597 280 702L315 1118H1078V190H1248V-323H1034V0H258V-323ZM367 190H864V929H508L488 702Q474 523 447.5 395.5Q421 268 367 190Z" fill="#64748b"/><path transform="translate(378.477, 0) scale(0.0169189453125, -0.0169189453125)" d="M630 -23Q465 -23 345.0 48.0Q225 119 160.5 248.0Q96 377 96 551Q96 723 159.5 854.0Q223 985 339.0 1058.5Q455 1132 611 1132Q707 1132 796.0 1100.5Q885 1069 956.0 1002.0Q1027 935 1068.5 828.5Q1110 722 1110 570V492H317Q321 391 357 320Q396 240 467.0 199.5Q538 159 632 159Q694 159 744.0 176.5Q794 194 830.5 229.5Q867 265 886 317L1093 268Q1066 182 1002.5 116.0Q939 50 844.5 13.5Q750 -23 630 -23ZM318 656H892Q885 726 862 784Q830 862 767.5 906.0Q705 950 611 950Q518 950 452.0 905.0Q386 860 352 787Q323 726 318 656Z" fill="#64748b"/><path transform="translate(408.068, 0) scale(0.0169189453125, -0.0169189453125)" d="M133 -402 187 -223 212 -229Q269 -244 314.5 -237.0Q360 -230 393.5 -194.5Q427 -159 447 -87L471 -5L46 1118H284L505 483Q542 377 567 272Q576 231 586 190Q597 231 608 273Q634 378 671 483L896 1118H1132L646 -155Q612 -245 562.5 -305.0Q513 -365 445.0 -395.5Q377 -426 287 -426Q235 -426 194.0 -418.5Q153 -411 133 -402Z" fill="#64748b"/><path transform="translate(427.999, 0) scale(0.0169189453125, -0.0169189453125)" d="M865 1118V928H368V0H148V1118Z" fill="#64748b"/><path transform="translate(443.293, 0) scale(0.0169189453125, -0.0169189453125)" d="M618 -23Q461 -23 343.5 49.0Q226 121 161.0 251.0Q96 381 96 553Q96 727 161.0 857.5Q226 988 343.5 1060.0Q461 1132 618 1132Q776 1132 893.5 1060.0Q1011 988 1076.0 857.5Q1141 727 1141 553Q1141 381 1076.0 251.0Q1011 121 893.5 49.0Q776 -23 618 -23ZM618 163Q720 163 786.5 216.5Q853 270 885.5 358.5Q918 447 918 553Q918 660 885.5 749.5Q853 839 786.5 892.5Q720 946 618 946Q517 946 451.0 892.5Q385 839 352.5 750.0Q320 661 320 553Q320 447 352.5 358.5Q385 270 451.0 216.5Q517 163 618 163Z" fill="#64748b"/><path transform="translate(464.222, 0) scale(0.0169189453125, -0.0169189453125)" d="M40 -323V190H130Q165 222 189.5 266.0Q214 310 231.0 371.5Q248 433 259.5 515.0Q271 597 280 702L315 1118H1078V190H1248V-323H1034V0H258V-323ZM367 190H864V929H508L488 702Q474 523 447.5 395.5Q421 268 367 190Z" fill="#64748b"/><path transform="translate(486.014, 0) scale(0.0169189453125, -0.0169189453125)" d="M368 1118V670H860V1118H1080V0H860V479H368V0H148V1118Z" fill="#64748b"/><path transform="translate(506.773, 0) scale(0.0169189453125, -0.0169189453125)" d="M618 -23Q461 -23 343.5 49.0Q226 121 161.0 251.0Q96 381 96 553Q96 727 161.0 857.5Q226 988 343.5 1060.0Q461 1132 618 1132Q776 1132 893.5 1060.0Q1011 988 1076.0 857.5Q1141 727 1141 553Q1141 381 1076.0 251.0Q1011 121 893.5 49.0Q776 -23 618 -23ZM618 163Q720 163 786.5 216.5Q853 270 885.5 358.5Q918 447 918 553Q918 660 885.5 749.5Q853 839 786.5 892.5Q720 946 618 946Q517 946 451.0 892.5Q385 839 352.5 750.0Q320 661 320 553Q320 447 352.5 358.5Q385 270 451.0 216.5Q517 163 618 163Z" fill="#64748b"/></g><g transform="translate(539.71656, 521.64)"><path transform="translate(0.000, 0) scale(0.02268, -0.02268)" d="M75 530V0H183V308C183 401 231 451 308 451C381 451 409 401 409 308V0H517V341C517 457 456 542 336 542C264 542 203 511 175 439L172 530Z" fill="#6366f1"/><path transform="translate(13.427, 0) scale(0.02268, -0.02268)" d="M511 0V530H404V222C404 129 356 79 281 79C210 79 183 129 183 222V530H75V189C75 73 136 -12 253 -12C321 -12 382 17 410 85L411 0Z" fill="#6366f1"/><path transform="translate(26.740, 0) scale(0.02268, -0.02268)" d="M75 530V0H183V308C183 399 225 451 299 451C358 451 392 400 392 308V0H494V308C494 400 535 451 610 451C670 451 703 401 703 308V0H810V341C810 470 746 542 639 542C559 542 504 504 480 432C457 502 402 542 326 542C255 542 201 506 176 444L172 530Z" fill="#6366f1"/><path transform="translate(46.812, 0) scale(0.02268, -0.02268)" d="M75 710V0H183V140L275 240L437 0H563L346 308L553 530H416L183 270V710Z" fill="#6366f1"/><path transform="translate(60.646, 0) scale(0.02268, -0.02268)" d="M75 530V0H183V530ZM73 608H185V710H73Z" fill="#6366f1"/><path transform="translate(66.498, 0) scale(0.02268, -0.02268)" d="M130 650V530H50V442H130V153C130 53 186 0 289 0H378V88H299C259 88 238 110 238 153V442H379V530H238V650Z" fill="#6366f1"/><path transform="translate(75.887, 0) scale(0.02268, -0.02268)" d="M44 123V0H171V123Z" fill="#6366f1"/><path transform="translate(80.763, 0) scale(0.02268, -0.02268)" d="M536 710H428V460C398 511 338 542 268 542C130 542 44 435 44 265C44 95 130 -12 268 -12C341 -12 403 21 433 75L436 0H536ZM155 265C155 380 210 452 296 452C382 452 436 380 436 265C436 152 382 81 296 81C211 81 155 152 155 265Z" fill="#6366f1"/><path transform="translate(94.621, 0) scale(0.02268, -0.02268)" d="M44 265C44 96 144 -12 297 -12C405 -12 498 51 530 152L418 160C396 110 349 80 297 80C214 80 164 137 158 234H537V269C531 458 423 542 297 542C144 542 44 434 44 265ZM159 315C171 400 220 450 297 450C356 450 411 415 424 315Z" fill="#6366f1"/><path transform="translate(107.821, 0) scale(0.02268, -0.02268)" d="M540 530H427L281 110L135 530H22L216 0H346Z" fill="#6366f1"/></g>
</svg>